Coordinates
version=1
nRows=60
nColumns=12
inDegrees=yes

Units are S.I. units (second, meters, Newtons, ...)
Angles are in degrees

endheader
time	SC_y	SC_z	SC_x	AC_y	AC_z	AC_x	GH_y	GH_z	GH_yy	EL_x	PS_y
       0.0              -32.82          6.241          5.619          53.97         -7.845         -15.82          127.0           79.9          44.28          123.8          29.79
   0.03141              -32.82          6.244          5.619          53.96         -7.846         -15.82          127.0          79.89          44.25          123.8           29.8
   0.06282              -32.83          6.247          5.619          53.96         -7.848         -15.81          126.9          79.89          44.22          123.8          29.81
   0.09424              -32.83           6.25           5.62          53.96         -7.849         -15.81          126.9          79.89          44.19          123.8          29.83
    0.1256              -32.83          6.253           5.62          53.96         -7.851         -15.81          126.9          79.88          44.16          123.8          29.84
    0.1571              -32.84          6.257           5.62          53.95         -7.853         -15.81          126.9          79.88          44.12          123.8          29.86
    0.1885              -32.84          6.261           5.62          53.95         -7.855         -15.81          126.9          79.88          44.09          123.7          29.87
    0.2199              -32.85          6.265          5.621          53.95         -7.857          -15.8          126.9          79.87          44.05          123.7          29.89
    0.2513              -32.86          6.269          5.621          53.94          -7.86          -15.8          126.9          79.87          44.01          123.7           29.9
    0.2827              -32.86          6.274          5.622          53.94         -7.862          -15.8          126.9          79.86          43.96          123.7          29.92
    0.3141              -32.87          6.279          5.622          53.93         -7.865          -15.8          126.9          79.86          43.91          123.7          29.94
    0.3455              -32.87          6.284          5.622          53.93         -7.868         -15.79          126.8          79.85          43.86          123.7          29.97
    0.3769              -32.88           6.29          5.623          53.92         -7.871         -15.79          126.8          79.85          43.81          123.6          29.99
    0.4084              -32.89          6.296          5.623          53.92         -7.874         -15.79          126.8          79.84          43.75          123.6          30.02
    0.4398               -32.9          6.303          5.624          53.91         -7.878         -15.78          126.8          79.83          43.68          123.6          30.04
    0.4712              -32.91           6.31          5.624          53.91         -7.882         -15.78          126.8          79.83          43.61          123.6          30.07
    0.5026              -32.92          6.319          5.625           53.9         -7.886         -15.77          126.7          79.82          43.53          123.5          30.11
     0.534              -32.93          6.327          5.626          53.89         -7.891         -15.77          126.7          79.81          43.45          123.5          30.14
    0.5654              -32.94          6.337          5.627          53.88         -7.896         -15.76          126.7           79.8          43.36          123.5          30.18
    0.5968              -32.96          6.347          5.627          53.87         -7.902         -15.76          126.7          79.79          43.26          123.4          30.22
    0.6282              -32.97          6.359          5.628          53.86         -7.908         -15.75          126.6          79.78          43.15          123.4          30.27
    0.6597              -32.99          6.371          5.629          53.85         -7.915         -15.74          126.6          79.77          43.02          123.4          30.32
    0.6911               -33.0          6.385           5.63          53.84         -7.922         -15.74          126.6          79.75          42.89          123.3          30.38
    0.7225              -33.02          6.401          5.632          53.83          -7.93         -15.73          126.5          79.74          42.74          123.3          30.44
    0.7539              -33.05          6.418          5.633          53.81          -7.94         -15.72          126.5          79.72          42.58          123.2          30.51
    0.7853              -33.07          6.437          5.634          53.79          -7.95         -15.71          126.4           79.7          42.39          123.1          30.59
    0.8167               -33.1          6.459          5.636          53.78         -7.961         -15.69          126.4          79.68          42.19          123.1          30.67
    0.8481              -33.13          6.483          5.638          53.76         -7.974         -15.68          126.3          79.66          41.96          123.0          30.77
    0.8795              -33.16           6.51           5.64          53.73         -7.989         -15.67          126.2          79.63          41.69          122.9          30.88
     0.911               -33.2          6.541          5.643           53.7         -8.006         -15.65          126.1           79.6           41.4          122.8          31.01
    0.9424              -33.25          6.577          5.646          53.67         -8.025         -15.63          126.0          79.56          41.06          122.6          31.15
    0.9738               -33.3          6.617          5.649          53.64         -8.047          -15.6          125.9          79.52          40.67          122.5          31.31
     1.005              -33.36          6.664          5.653           53.6         -8.072         -15.58          125.8          79.48          40.22          122.3           31.5
     1.037              -33.43          6.719          5.657          53.55         -8.101         -15.55          125.6          79.42          39.69          122.2          31.73
     1.068              -33.51          6.782          5.662          53.49         -8.135         -15.51          125.5          79.36          39.08          121.9          31.98
     1.099              -33.61          6.858          5.668          53.43         -8.176         -15.47          125.3          79.29          38.36          121.7          32.29
     1.131              -33.72          6.947          5.675          53.35         -8.223         -15.42          125.0           79.2           37.5          121.4          32.65
     1.162              -33.86          7.054          5.684          53.26         -8.281         -15.36          124.7          79.09          36.47          121.0          33.08
     1.194              -34.03          7.183          5.694          53.14          -8.35         -15.28          124.4          78.96          35.23          120.5          33.61
     1.225              -34.23          7.342          5.706          53.01         -8.435          -15.2          123.9          78.81          33.71          120.0          34.25
     1.256              -34.48          7.537          5.722          52.83          -8.54         -15.08          123.4          78.62          31.84          119.3          35.04
     1.288              -34.79          7.781          5.741          52.62         -8.671         -14.95          122.7          78.37           29.5          118.5          36.03
     1.319              -35.19          8.087          5.766          52.35         -8.836         -14.77          121.9          78.07          26.56          117.4          37.27
     1.351              -35.69          8.477          5.797          52.01         -9.045         -14.55          120.8          77.69          22.81          116.1          38.85
     1.382              -36.33          8.977          5.836          51.58         -9.313         -14.27          119.4          77.19          18.02          114.3          40.87
     1.414              -37.15          9.617          5.887          51.02         -9.657         -13.91          117.6          76.56          11.88          112.1          43.47
     1.445               -38.2          10.44          5.952          50.31          -10.1         -13.44          115.4          75.75          4.024          109.3          46.78
     1.476              -39.52          11.46          6.034          49.41         -10.65         -12.86          112.5          74.74          -5.85          105.7          50.95
     1.508              -41.12          12.72          6.134          48.31         -11.32         -12.15          109.0           73.5         -17.88          101.4          56.03
     1.539              -42.99          14.17          6.249          47.04          -12.1         -11.33          105.0          72.06         -31.83          96.35          61.92
     1.571              -45.01          15.75          6.374          45.67         -12.95         -10.44          100.7          70.51         -46.93           90.9          68.29
     1.602              -47.02          17.32          6.499           44.3         -13.79         -9.549          96.32          68.95         -62.03          85.45          74.66
     1.633              -48.89          18.77          6.615          43.03         -14.57         -8.727           92.3          67.52         -75.98          80.42          80.55
     1.665               -50.5          20.03          6.714          41.93         -15.24         -8.017          88.83          66.28         -88.01          76.08          85.63
     1.696              -51.81          21.06          6.796          41.04          -15.8         -7.435          85.99          65.26         -97.89          72.52           89.8
     1.728              -52.86          21.87          6.861          40.32         -16.24         -6.972          83.73          64.45         -105.7          69.68          93.11
     1.759              -53.69          22.51          6.912          39.76         -16.58          -6.61          81.95          63.82         -111.9          67.46          95.71
     1.791              -54.33          23.01          6.952          39.33         -16.85         -6.327          80.57          63.33         -116.7          65.74          97.73
     1.822              -54.83           23.4          6.983          38.99         -17.06         -6.106          79.49          62.94         -120.4          64.39          99.31
     1.853              -55.22          23.71          7.007          38.72         -17.22         -5.933          78.65          62.64         -123.4          63.32          100.6
